<svg width="80" height="80" viewBox="0 0 80 80" fill="none" xmlns="http://www.w3.org/2000/svg">
<path d="M47.4525 34.3181C47.2702 34.1381 46.9531 34.0668 46.6855 34.1388L35.2825 37.2132L35.2413 37.2146C35.176 37.2167 35.1112 37.2265 35.0487 37.2433L27.2293 39.3517L49.2627 7.21899L42.323 9.36273L18.1587 44.6031L25.9781 42.4947C26.0406 42.4779 26.1054 42.4681 26.1707 42.4661L26.2119 42.4647L37.6149 39.3903C37.8825 39.3183 38.1995 39.3896 38.3819 39.5695C38.5423 39.7276 38.5786 39.9399 38.4767 40.1239L18.3847 76.6667L20.3606 74.3485L38.4789 51.2687L47.5473 34.8724C47.6492 34.6885 47.6129 34.4761 47.4525 34.3181Z" fill="#FFBC00"/>
<path d="M45.065 29.8171C44.7815 29.877 44.4792 29.7881 44.3114 29.5949C44.165 29.4266 44.1501 29.211 44.2723 29.0322L61.8413 3.33333L49.2627 7.21906L27.2293 39.3517L35.0487 37.2433C35.1112 37.2265 35.176 37.2167 35.2413 37.2147L35.2825 37.2133L46.6855 34.1389C46.9531 34.0669 47.2701 34.1382 47.4525 34.3181C47.6129 34.4762 47.6492 34.6885 47.5473 34.8725L38.4789 51.2686L57.3683 27.2065L45.065 29.8171Z" fill="#FFDE00"/>
</svg>
