<svg xmlns="http://www.w3.org/2000/svg" viewBox="0 0 216 216">
    <path fill="#FFBC00" d="M128.122 92.659c-.492-.486-1.348-.679-2.071-.484l-30.788 8.301-.112.003a2.3 2.3 0 0 0-.52.078l-21.112 5.692 59.49-86.758-18.737 5.788-65.244 95.149 21.113-5.692q.255-.069.52-.078l.111-.004 30.788-8.3c.723-.195 1.579-.002 2.071.484.433.426.531 1 .256 1.496L49.639 207l5.335-6.259 48.919-62.316 24.485-44.27c.275-.496.177-1.07-.256-1.496"/>
    <path fill="#FFDE00" d="M121.676 80.506c-.766.162-1.582-.078-2.035-.6-.395-.454-.436-1.036-.106-1.52L166.972 9l-33.963 10.491-59.49 86.759 21.113-5.693a2.3 2.3 0 0 1 .52-.077l.11-.004 30.789-8.301c.722-.194 1.578-.002 2.071.484.433.427.531 1 .256 1.497l-24.485 44.269 51.001-64.968z"/>
</svg>