<svg xmlns="http://www.w3.org/2000/svg" viewBox="0 0 148 38">
    <path fill="#fff" d="M21.854 17.443a.37.37 0 0 0-.345-.08l-5.132 1.383h-.018a.4.4 0 0 0-.087.014l-3.519.948 9.915-14.46-3.123.965L8.671 22.071l3.52-.948a.4.4 0 0 1 .086-.013h.018l5.132-1.384c.12-.033.263 0 .345.08.072.071.088.167.043.25L8.772 36.5l.89-1.043 8.153-10.386 4.08-7.378c.046-.083.03-.179-.042-.25"/>
    <path fill="#fff" d="M20.78 15.418a.36.36 0 0 1-.34-.1.2.2 0 0 1-.018-.253L28.33 3.5l-5.66 1.749-9.916 14.46 3.519-.95a.4.4 0 0 1 .087-.012l.018-.001 5.132-1.383c.12-.033.263 0 .345.08.072.071.088.167.042.25l-4.08 7.378 8.5-10.828zM60.332 9.864 56.036 27h-4.752l-1.992-8.28a11 11 0 0 1-.168-.768 25 25 0 0 0-.24-1.152q-.12-.648-.216-1.224-.096-.6-.144-.96-.048.36-.168.96-.096.576-.216 1.224-.12.624-.24 1.152-.096.504-.168.768L45.716 27h-4.728l-4.32-17.136h3.984l2.04 9q.096.36.216.96.12.576.24 1.248.12.648.216 1.272.12.6.168 1.032.072-.576.192-1.32.144-.744.288-1.512t.288-1.44.264-1.08l2.04-8.16h3.816l2.04 8.16q.072.408.216 1.08.168.672.312 1.464.168.768.288 1.512t.192 1.296q.072-.6.216-1.44.168-.864.336-1.704.168-.864.288-1.344l2.04-9.024zm7.331 3.696q2.568 0 3.984 1.2 1.416 1.176 1.416 3.504V27h-2.808l-.792-1.776h-.096a6.5 6.5 0 0 1-1.152 1.152q-.576.456-1.344.648-.744.216-1.848.216-1.152 0-2.088-.456a3.35 3.35 0 0 1-1.44-1.392q-.528-.936-.528-2.376 0-2.112 1.464-3.12 1.488-1.008 4.344-1.128l2.256-.072v-.384q0-.96-.504-1.392-.48-.432-1.344-.432t-1.8.288q-.936.264-1.896.672l-1.224-2.688a9.8 9.8 0 0 1 2.448-.888 13.3 13.3 0 0 1 2.952-.312m.144 7.488q-1.512.048-2.112.552-.6.48-.6 1.32 0 .744.432 1.08t1.104.336q1.008 0 1.704-.6.696-.624.696-1.68V21zm14.647 2.976q.624 0 1.152-.12t1.08-.312v2.976a8 8 0 0 1-1.488.48q-.84.192-1.992.192-1.224 0-2.184-.384-.936-.408-1.488-1.368-.528-.984-.528-2.712v-5.928h-1.68v-1.68l2.016-1.296 1.104-2.784h2.592v2.736h3.504v3.024h-3.504v5.784q0 .696.384 1.056.384.336 1.032.336m10.71 0q.624 0 1.153-.12.528-.12 1.08-.312v2.976a8 8 0 0 1-1.488.48q-.84.192-1.992.192-1.224 0-2.184-.384-.936-.408-1.488-1.368-.528-.984-.528-2.712v-5.928h-1.68v-1.68l2.016-1.296 1.104-2.784h2.592v2.736h3.504v3.024h-3.504v5.784q0 .696.384 1.056.384.336 1.032.336m14.216-1.008q0 1.296-.6 2.256-.576.936-1.824 1.464-1.248.504-3.168.504-1.392 0-2.448-.168a9.6 9.6 0 0 1-2.088-.6v-3.264q1.152.504 2.4.792 1.272.288 2.112.288.912 0 1.32-.24t.408-.672a.8.8 0 0 0-.216-.552q-.192-.24-.816-.552-.6-.312-1.8-.792-1.176-.504-1.944-1.032a3.55 3.55 0 0 1-1.128-1.272q-.36-.744-.36-1.824 0-1.872 1.44-2.808 1.464-.96 3.864-.96 1.272 0 2.4.264t2.328.816l-1.152 2.736q-.648-.288-1.296-.504a10 10 0 0 0-1.2-.336 5.3 5.3 0 0 0-1.08-.12q-.672 0-1.032.192-.36.168-.36.528 0 .264.192.504.216.216.792.48.6.264 1.728.744a12 12 0 0 1 1.92.96q.792.504 1.2 1.248t.408 1.92m17.181-2.424q0 1.968-.792 3.48-.792 1.488-2.4 2.328t-4.056.84q-3.456 0-5.28-1.776t-1.824-4.848V9.864h4.103V20.16q0 1.968.769 2.808.792.84 2.328.84 1.08 0 1.752-.384t.984-1.2q.336-.816.336-2.088V9.864h4.08zm11.3-7.008q2.208 0 3.528 1.752 1.32 1.728 1.32 5.04 0 2.256-.648 3.792t-1.776 2.304q-1.104.768-2.544.768-.936 0-1.608-.24a4.4 4.4 0 0 1-1.128-.6 6 6 0 0 1-.768-.768h-.168q.072.456.12.96t.048 1.08v5.088h-4.056V13.824h3.288l.576 1.68h.192q.336-.528.816-.96.504-.432 1.2-.696t1.608-.264m-1.416 3.192q-.816 0-1.296.36-.456.36-.672 1.08-.216.696-.24 1.776v.36q0 1.176.192 1.992.216.792.696 1.224.504.408 1.368.408.696 0 1.152-.384.48-.408.696-1.224.24-.816.24-2.04 0-1.848-.528-2.688-.528-.864-1.608-.864M141.14 9.55V5.2h1.35q.92 0 1.33.35.41.34.41.98 0 .49-.22.76a1.4 1.4 0 0 1-.52.4l1.06 1.86h-1.11l-.84-1.62h-.42v1.62zm1.34-2.38q.34 0 .52-.15.18-.16.18-.46t-.17-.42q-.17-.13-.53-.13h-.3v1.16zm.16 3.93a3.9 3.9 0 0 1-1.47-.27 3.5 3.5 0 0 1-1.17-.76 3.5 3.5 0 0 1-.76-1.17 3.9 3.9 0 0 1-.27-1.47q0-.78.27-1.44.28-.67.77-1.17a3.6 3.6 0 0 1 1.17-.78q.67-.28 1.46-.28.78 0 1.44.27.67.27 1.17.77.51.49.78 1.16.28.67.28 1.47t-.27 1.47-.77 1.17q-.49.49-1.16.76a3.9 3.9 0 0 1-1.47.27m0-.71q.62 0 1.14-.22t.91-.61q.4-.4.61-.94.22-.54.22-1.19 0-.63-.22-1.17a2.77 2.77 0 0 0-1.51-1.56 2.9 2.9 0 0 0-1.15-.23q-.63 0-1.16.22-.53.21-.92.61-.39.39-.61.94-.21.54-.21 1.19t.21 1.19q.22.54.6.94.39.39.92.61t1.17.22"/>
</svg>